<svg xmlns="http://www.w3.org/2000/svg" width="24" height="24" viewBox="0 0 48 48">
  <path fill="#EA4335" d="M24 9.5c3.19 0 5.6 1.38 6.91 2.53l5.08-5.07C32.57 4.52 28.66 3 24 3 14.61 3 6.92 8.66 3.7 17.15l6.91 5.38C12.09 14.8 17.54 9.5 24 9.5z"/>
  <path fill="#34A853" d="M44.5 24c0-1.5-.16-2.94-.47-4.33H24v8.17h11.5c-.5 2.67-2.02 4.94-4.24 6.41l6.91 5.38C43.52 34.9 44.5 29.68 44.5 24z"/>
  <path fill="#4A90E2" d="M9.88 28.33c-.45-1.3-.71-2.69-.71-4.33s.26-3.03.71-4.33L2.97 14.28C1.07 17.4 0 20.61 0 24c0 3.39 1.07 6.6 2.97 9.72l6.91-5.39z"/>
  <path fill="#FBBC05" d="M24 44c5.44 0 9.99-1.8 13.33-4.88l-6.91-5.38c-1.88 1.26-4.31 2-6.42 2-6.42 0-11.87-4.2-13.82-10l-6.92 5.38C6.91 39.35 14.61 44 24 44z"/>
  <path fill="none" d="M0 0h48v48H0z"/>
</svg>
